<?xml version="1.0" encoding="utf-8"?>
<!-- Generator: Adobe Illustrator 16.0.0, SVG Export Plug-In . SVG Version: 6.00 Build 0)  -->
<!DOCTYPE svg PUBLIC "-//W3C//DTD SVG 1.1//EN" "http://www.w3.org/Graphics/SVG/1.1/DTD/svg11.dtd">
<svg version="1.1" id="Mail_Icon_Msater_copy" xmlns="http://www.w3.org/2000/svg" xmlns:xlink="http://www.w3.org/1999/xlink"
	 x="0px" y="0px" width="56px" height="56px" viewBox="0 0 56 56" enable-background="new 0 0 56 56" xml:space="preserve">
<g>
	<path fill="#91A5C0" d="M42.562,0.009H13.434C6.015,0.009,0,6.24,0,13.926v28.136c0,7.686,6.015,13.916,13.433,13.916h29.128
		c7.42,0,13.432-6.23,13.432-13.916V13.926C55.993,6.24,49.981,0.009,42.562,0.009z M46.875,14.125
		C39,21.062,34.062,30.5,28.094,30.5S16.875,20.938,9.312,14.125C9.22,14.042,46.941,14.067,46.875,14.125z M8.085,16.031
		c0,0,10.872,10.876,11.978,13.219C18.607,31.74,8.085,40.719,8.085,40.719V16.031z M9.125,42.438c0,0,9.5-8.188,12.875-11.75
		c1.75,1.562,4.438,2.438,6.125,2.375c1.562,0.062,3.938-0.75,6.188-2.438c3.812,4.062,12.438,11.812,12.438,11.812H9.125z
		 M48.188,40.719c0,0-10.522-8.979-11.978-11.469c1.105-2.343,11.978-13.219,11.978-13.219V40.719z"/>
</g>
</svg>
