<?xml version="1.0" encoding="utf-8"?>
<!-- Generator: Adobe Illustrator 16.0.0, SVG Export Plug-In . SVG Version: 6.00 Build 0)  -->
<!DOCTYPE svg PUBLIC "-//W3C//DTD SVG 1.1//EN" "http://www.w3.org/Graphics/SVG/1.1/DTD/svg11.dtd">
<svg version="1.1" id="Connect_Icon_Chicklet" xmlns="http://www.w3.org/2000/svg" xmlns:xlink="http://www.w3.org/1999/xlink"
	 x="0px" y="0px" width="56px" height="56px" viewBox="0 0 56 56" enable-background="new 0 0 56 56" xml:space="preserve">
<g>
	<path fill="#91A5C0" d="M42.562,0.009H13.434C6.015,0.009,0,6.24,0,13.926v28.136c0,7.686,6.015,13.916,13.433,13.916h29.128
		c7.42,0,13.432-6.23,13.432-13.916V13.926C55.993,6.24,49.981,0.009,42.562,0.009z M24.583,28.167c0,0.152-0.012,0.301-0.023,0.45
		l8.198,4.078c1.132-0.999,2.613-1.61,4.242-1.61c3.544,0,6.416,2.872,6.416,6.416S40.544,43.916,37,43.916
		s-6.416-2.872-6.416-6.416c0-0.463,0.051-0.912,0.145-1.347l-7.686-3.823c-1.177,1.377-2.923,2.252-4.876,2.252
		c-3.544,0-6.416-2.871-6.416-6.416c0-3.544,2.872-6.416,6.416-6.416c2.011,0,3.804,0.926,4.98,2.374l7.635-4.07
		c-0.124-0.499-0.197-1.017-0.197-1.554c0-3.544,2.872-6.417,6.416-6.417s6.416,2.873,6.416,6.417S40.544,24.917,37,24.917
		c-1.552,0-2.975-0.551-4.084-1.467l-8.347,4.449C24.573,27.988,24.583,28.076,24.583,28.167z"/>
</g>
</svg>
