<?xml version="1.0" encoding="utf-8"?>
<!-- Generator: Adobe Illustrator 16.0.0, SVG Export Plug-In . SVG Version: 6.00 Build 0)  -->
<!DOCTYPE svg PUBLIC "-//W3C//DTD SVG 1.1//EN" "http://www.w3.org/Graphics/SVG/1.1/DTD/svg11.dtd">
<svg version="1.1" id="YouTube_chicklet" xmlns="http://www.w3.org/2000/svg" xmlns:xlink="http://www.w3.org/1999/xlink" x="0px"
	 y="0px" width="56px" height="56px" viewBox="0 0 56 56" enable-background="new 0 0 56 56" xml:space="preserve">
<g>
	<g>
		<path fill="#91A5C0" d="M42.568,0H13.44C6.022,0,0.007,6.231,0.007,13.917v28.136c0,7.686,6.015,13.916,13.433,13.916h29.128
			c7.42,0,13.432-6.23,13.432-13.916V13.917C56,6.231,49.988,0,42.568,0z M33.777,11.34l2.995-0.005v10.016
			c0,0-0.016,0.984,0.312,1.047c0.123,0.023,0.624,0.071,1.094-0.141c0.484-0.219,0.995-0.724,0.995-0.724V11.335h2.989
			l-0.016,13.406l-2.969,0.016l0.036-1.474c0,0-0.974,0.849-1.271,1.052c-0.192,0.131-0.963,0.579-1.859,0.594
			c-0.922,0.016-1.325-0.168-1.594-0.406c-0.281-0.25-0.703-0.594-0.719-1.531C33.767,22.636,33.777,11.34,33.777,11.34z
			 M27.226,10.976c3.016,0,4.125,1.938,4.125,3.359v7.047c0,2.016-1.203,3.688-4.172,3.688c-3.641,0-4.344-2.312-4.344-3.656v-7.047
			C22.835,12.882,23.96,10.976,27.226,10.976z M15.34,6.617l2.26,7.375l2.094-7.375h3.281l-3.791,10.813v7.344l-3.25-0.032v-7.312
			L12.028,6.617H15.34z M47.423,43.142c0.126,4.1-2.624,5.977-5.943,5.977c0,0-5.389,0.29-13.098,0.29
			c-7.708,0-13.557-0.29-13.557-0.29c-3.526,0-6.109-1.752-5.942-5.977c0,0-0.167-1.525-0.167-4.608s0.167-5.356,0.167-5.356
			c0-3.936,2.125-5.977,5.942-5.977c0,0,4.432-0.167,13.182-0.167S41.479,27.2,41.479,27.2c3.444,0,5.985,2.083,5.943,5.977
			c0,0,0.167,2.398,0.167,4.898S47.423,43.142,47.423,43.142z"/>
	</g>
	<path fill="#91A5C0" d="M24.156,42.61c0,0-0.41,0.414-0.798,0.593c-0.376,0.174-0.778,0.135-0.876,0.115
		c-0.263-0.051-0.25-0.752-0.25-0.752v-8.202l-2.4,0.004c0,0-0.008,9.251-0.004,9.543c0.013,0.767,0.35,1.049,0.577,1.254
		c0.215,0.195,0.538,0.345,1.277,0.332c0.719-0.013,1.335-0.379,1.49-0.486c0.238-0.166,1.019-0.862,1.019-0.862l-0.001,1.164h2.328
		l0.036-10.948h-2.395V42.61z"/>
	<path fill="#91A5C0" d="M35.484,35.609c-0.219-0.562-0.578-0.984-1.203-1.234c-0.513-0.205-1.234-0.219-1.641-0.094
		c-0.438,0.135-1.203,0.75-1.203,0.75l-0.186,0.141v-4.651h-2.395l0.035,14.792h2.328l-0.002-0.906c0,0,0.465,0.547,0.953,0.75
		c0.174,0.072,0.672,0.347,1.391,0.359c0.739,0.013,1.227-0.155,1.441-0.351c0.227-0.205,0.564-0.487,0.577-1.254
		c0.005-0.323,0.005-0.3-0.001-6.833C35.58,37.078,35.656,36.052,35.484,35.609z M33.177,42.566c0,0-0.005,0.73-0.349,0.918
		c-0.088,0.048-0.438,0.156-0.766,0.094c-0.419-0.08-0.811-0.452-0.811-0.452v-6.642c0,0,0.443-0.313,0.811-0.391
		c0.297-0.062,0.537,0.007,0.766,0.188c0.297,0.234,0.349,0.812,0.349,0.812V42.566z"/>
	<path fill="#91A5C0" d="M40.994,34.08c-2.645,0-3.557,1.559-3.557,2.771v5.764c0,1.099,0.57,2.99,3.518,2.99
		c2.406,0,3.38-1.367,3.38-3.017v-1.276l-2.383,0.016v1.371c0,0.261-0.312,0.863-1.032,0.863c-0.723,0-1.053-0.504-1.053-0.824
		l-0.008-2.566l4.476-0.016v-3.328C44.335,35.662,43.437,34.08,40.994,34.08z M41.952,38.312h-2.062l-0.002-1.305
		c0-0.681,0.582-0.883,1.065-0.883c0.669,0,0.998,0.469,0.998,0.865V38.312z"/>
	<polygon fill="#91A5C0" points="19.938,30.5 11.625,30.5 11.625,32.792 14.438,32.792 14.438,45.344 17.125,45.344 17.125,32.781 
		19.938,32.781 	"/>
	<path fill="#91A5C0" d="M27.134,22.784c0.888,0,1.248-0.71,1.248-1.027v-7.344c0-0.484-0.406-1.059-1.233-1.059
		c-0.595,0-1.313,0.246-1.313,1.079v7.344C25.835,22.168,26.241,22.784,27.134,22.784z"/>
</g>
</svg>
