<?xml version="1.0" encoding="utf-8"?>
<!-- Generator: Adobe Illustrator 16.0.0, SVG Export Plug-In . SVG Version: 6.00 Build 0)  -->
<!DOCTYPE svg PUBLIC "-//W3C//DTD SVG 1.1//EN" "http://www.w3.org/Graphics/SVG/1.1/DTD/svg11.dtd">
<svg version="1.1" id="Facebook_Icon_copy" xmlns="http://www.w3.org/2000/svg" xmlns:xlink="http://www.w3.org/1999/xlink" x="0px"
	 y="0px" width="56px" height="56px" viewBox="0 0 56 56" enable-background="new 0 0 56 56" xml:space="preserve">
<g>
	<path fill="#91A5C0" d="M42.58-0.014H13.452c-7.418,0-13.433,6.231-13.433,13.917v28.136c0,7.686,6.015,13.916,13.433,13.916H42.58
		c7.42,0,13.432-6.23,13.432-13.916V13.903C56.012,6.217,50-0.014,42.58-0.014z M36.096,28.347h-5.551v19.751h-8.15V28.347h-4
		v-6.851h4v-4.1c0-4.201,1.45-6.901,4.3-8.051c1.4-0.55,2.6-0.7,3.85-0.7h6.2v6.801h-3.7c-1.1,0-1.8,0.3-2.15,0.9
		c-0.25,0.4-0.35,1.1-0.35,2.05v3.1h6.301L36.096,28.347z"/>
</g>
</svg>
