<?xml version="1.0" encoding="utf-8"?>
<!-- Generator: Adobe Illustrator 16.0.0, SVG Export Plug-In . SVG Version: 6.00 Build 0)  -->
<!DOCTYPE svg PUBLIC "-//W3C//DTD SVG 1.1//EN" "http://www.w3.org/Graphics/SVG/1.1/DTD/svg11.dtd">
<svg version="1.1" id="Twitter_Icon_Chicklet" xmlns="http://www.w3.org/2000/svg" xmlns:xlink="http://www.w3.org/1999/xlink"
	 x="0px" y="0px" width="56px" height="56px" viewBox="0 0 56 56" enable-background="new 0 0 56 56" xml:space="preserve">
<g>
	<path fill="#91A5C0" d="M42.58-0.014H13.452c-7.418,0-13.433,6.231-13.433,13.917v28.136c0,7.686,6.015,13.916,13.433,13.916H42.58
		c7.42,0,13.432-6.23,13.432-13.916V13.903C56.012,6.217,50-0.014,42.58-0.014z M27.894,38.302c0.834,0.834,1.816,1.25,2.951,1.25
		h4.161c1.168,0,2.168,0.417,3,1.25c0.834,0.834,1.25,1.834,1.25,3c0,1.167-0.416,2.167-1.25,3c-0.832,0.834-1.832,1.25-3,1.25
		h-4.112c-3.5,0-6.5-1.241-9-3.725s-3.75-5.476-3.75-8.976v-22.34c0-1.167,0.425-2.167,1.275-3c0.85-0.833,1.858-1.25,3.025-1.25
		c1.167,0,2.167,0.417,3,1.25c0.833,0.833,1.25,1.833,1.25,3v5.228h8.312c1.168,0,2.168,0.417,3,1.25c0.834,0.833,1.25,1.833,1.25,3
		c0,1.167-0.416,2.167-1.25,3c-0.832,0.834-1.832,1.25-3,1.25h-8.362v8.613C26.644,36.485,27.061,37.469,27.894,38.302z"/>
</g>
</svg>
