<?xml version="1.0" encoding="utf-8"?>
<!-- Generator: Adobe Illustrator 16.0.0, SVG Export Plug-In . SVG Version: 6.00 Build 0)  -->
<!DOCTYPE svg PUBLIC "-//W3C//DTD SVG 1.1//EN" "http://www.w3.org/Graphics/SVG/1.1/DTD/svg11.dtd">
<svg version="1.1" id="Print_icon_chicklet" xmlns="http://www.w3.org/2000/svg" xmlns:xlink="http://www.w3.org/1999/xlink"
	 x="0px" y="0px" width="56px" height="56px" viewBox="0 0 56 56" enable-background="new 0 0 56 56" xml:space="preserve">
<g>
	<rect x="20.209" y="36.125" fill="#91A5C0" width="16.125" height="3.875"/>
	<rect x="20.292" y="42.042" fill="#91A5C0" width="15.958" height="4.041"/>
	<path fill="#91A5C0" d="M42.568,0.03H13.441c-7.418,0-13.433,6.231-13.433,13.917v28.136C0.008,49.77,6.022,56,13.441,56h29.127
		C49.988,56,56,49.77,56,42.084V13.948C56,6.261,49.988,0.03,42.568,0.03z M16.292,7.959h24.125v8.188H16.292V7.959z M40.181,48.194
		H16.118V34.319h24.063V48.194z M48.334,40.146h-6.062L42.23,30.021H14.115l-0.032,10.125h-6V20.084h40.25V40.146z"/>
</g>
</svg>
